<svg xmlns="http://www.w3.org/2000/svg" width="40" height="40" viewBox="0 0 32 32"><path d="M16 24.6c-4.75 0-8.6-3.85-8.6-8.6s3.85-8.6 8.6-8.6 8.6 3.85 8.6 8.6-3.85 8.6-8.6 8.6zm0-1.2a7.4 7.4 0 100-14.8 7.4 7.4 0 000 14.8zm-1.8-9.058v.915c0 .962.78 1.742 1.742 1.742h.115c.962 0 1.742-.78 1.742-1.742v-.915c0-.962-.78-1.742-1.742-1.742h-.115c-.962 0-1.742.78-1.742 1.742zm7.2 6.718a7.4 7.4 0 01-1.2 1.034v-1.369a2.284 2.284 0 00-1.693-2.17 9.048 9.048 0 00-5.02.003 2.28 2.28 0 00-1.687 2.163v1.373a7.443 7.443 0 01-1.2-1.034v-.348a3.477 3.477 0 012.564-3.311c.202-.058.405-.11.609-.155A2.934 2.934 0 0113 15.258v-.915a2.942 2.942 0 012.942-2.942h.115a2.942 2.942 0 012.942 2.942v.915c0 .766-.293 1.464-.772 1.987.202.045.403.096.602.154a3.48 3.48 0 012.57 3.317v.344z"></path></svg>